# xmcd
#
# Track frame offsets: 
#        150
#        9548
#        24347
#        38833
#        50954
#        63493
#        83383
#        98230
#        109634
#        123693
#        139814
#        155835
#        169031
#        181607
#        194989
#
# Disc length: 2891 seconds
#
# Revision: 0
# Processed by: cddbd v1.5.2PL0 Copyright (c) Steve Scherf et al.
# Submitted via: ExactAudioCopy v0.95b4
#
DISCID=cc0b490f
DTITLE=Washboard Chaz Blues Trio - Mix it up
DYEAR=2008
DGENRE=Blues
TTITLE0=Busy bootin' (trad)
TTITLE1=Sailor blues (Rob McLerran)
TTITLE2=Don't leave me here (Bill Broonzey)
TTITLE3=Call it love (Andy J. Forest)
TTITLE4=Go round and round (Joe Williams)
TTITLE5=Summer's gone (Alex Mc Murray)
TTITLE6=I'm so glad (Skip James)
TTITLE7=Insane and crazy blues (Charlie Burse)
TTITLE8=1st shot got him (Rob McLerran)
TTITLE9=Special streamline (Booker White)
TTITLE10=Mother died (Leary, Luti, Forest)
TTITLE11=Falling down blues (Furry Lewis)
TTITLE12=Dodge (Jim Lang)
TTITLE13=So much trouble (Brownie McGhee)
TTITLE14=Oh, oh, oh (Leary, Luti, Forest)
EXTD=
EXTT0=
EXTT1=
EXTT2=
EXTT3=
EXTT4=
EXTT5=
EXTT6=
EXTT7=
EXTT8=
EXTT9=
EXTT10=
EXTT11=
EXTT12=
EXTT13=
EXTT14=
PLAYORDER=
